<svg width="133" height="133" viewBox="0 0 133 133" fill="none" xmlns="http://www.w3.org/2000/svg">
<circle cx="66.5" cy="66.5" r="66.5" fill="#CFD0D6"/>
<path d="M103.646 66.5H89.3594V55.2188C89.3594 48.9964 94.4849 43.9375 100.789 43.9375H102.218C104.593 43.9375 106.504 42.0514 106.504 39.707V31.2461C106.504 28.9017 104.593 27.0156 102.218 27.0156H100.789C85.0018 27.0156 72.2148 39.6365 72.2148 55.2188V97.5234C72.2148 102.195 76.0545 105.984 80.7871 105.984H103.646C108.379 105.984 112.219 102.195 112.219 97.5234V74.9609C112.219 70.2898 108.379 66.5 103.646 66.5ZM52.2129 66.5H37.9258V55.2188C37.9258 48.9964 43.0513 43.9375 49.3555 43.9375H50.7842C53.1594 43.9375 55.0703 42.0514 55.0703 39.707V31.2461C55.0703 28.9017 53.1594 27.0156 50.7842 27.0156H49.3555C33.5682 27.0156 20.7812 39.6365 20.7812 55.2188V97.5234C20.7812 102.195 24.6209 105.984 29.3535 105.984H52.2129C56.9455 105.984 60.7852 102.195 60.7852 97.5234V74.9609C60.7852 70.2898 56.9455 66.5 52.2129 66.5Z" fill="black"/>
</svg>
